<mxfile host="app.diagrams.net" modified="2021-03-07T22:40:01.007Z" agent="5.0 (Windows NT 10.0; Win64; x64) AppleWebKit/537.36 (KHTML, like Gecko) Chrome/88.0.4324.150 Safari/537.36 OPR/74.0.3911.160" etag="8jdsi3WSAEnN7ZUMlcRt" version="14.4.4" type="github">
  <diagram id="nAmxRCxkEcYxJnRmAlGo" name="Page-1">
    <mxGraphModel dx="1707" dy="1672" grid="1" gridSize="10" guides="1" tooltips="1" connect="1" arrows="1" fold="1" page="1" pageScale="1" pageWidth="827" pageHeight="1169" math="0" shadow="0">
      <root>
        <mxCell id="0" />
        <mxCell id="1" parent="0" />
        <mxCell id="Z-sgu7zI139RoXBp0RE4-1" value="&lt;font style=&quot;font-size: 24px&quot;&gt;Scegli E-Campus&lt;br&gt;&lt;br&gt;&lt;/font&gt;" style="strokeWidth=1;shadow=0;dashed=0;align=center;html=1;shape=mxgraph.mockup.containers.browserWindow;rSize=0;strokeColor=#666666;strokeColor2=#008cff;strokeColor3=#c4c4c4;mainText=,;recursiveResize=0;" parent="1" vertex="1">
          <mxGeometry x="110" y="-140" width="690" height="520" as="geometry" />
        </mxCell>
        <mxCell id="Z-sgu7zI139RoXBp0RE4-2" value="Page 1" style="strokeWidth=1;shadow=0;dashed=0;align=center;html=1;shape=mxgraph.mockup.containers.anchor;fontSize=17;fontColor=#666666;align=left;" parent="Z-sgu7zI139RoXBp0RE4-1" vertex="1">
          <mxGeometry x="60" y="12" width="110" height="26" as="geometry" />
        </mxCell>
        <mxCell id="Z-sgu7zI139RoXBp0RE4-3" value="https://www.draw.io" style="strokeWidth=1;shadow=0;dashed=0;align=center;html=1;shape=mxgraph.mockup.containers.anchor;rSize=0;fontSize=17;fontColor=#666666;align=left;" parent="Z-sgu7zI139RoXBp0RE4-1" vertex="1">
          <mxGeometry x="130" y="60" width="250" height="26" as="geometry" />
        </mxCell>
        <mxCell id="Z-sgu7zI139RoXBp0RE4-4" value="click&lt;br&gt;" style="strokeWidth=1;shadow=0;dashed=0;align=center;html=1;shape=mxgraph.mockup.buttons.button;strokeColor=#666666;fontColor=#ffffff;mainText=;buttonStyle=round;fontSize=17;fontStyle=1;fillColor=#008cff;whiteSpace=wrap;" parent="Z-sgu7zI139RoXBp0RE4-1" vertex="1">
          <mxGeometry x="290" y="130" width="110" height="50" as="geometry" />
        </mxCell>
        <mxCell id="Z-sgu7zI139RoXBp0RE4-14" value="" style="strokeWidth=1;shadow=0;dashed=0;align=center;html=1;shape=mxgraph.mockup.buttons.multiButton;fillColor=#008cff;strokeColor=#666666;mainText=;subText=;" parent="Z-sgu7zI139RoXBp0RE4-1" vertex="1">
          <mxGeometry x="280" y="370" width="150" height="50" as="geometry" />
        </mxCell>
        <mxCell id="Z-sgu7zI139RoXBp0RE4-15" value="don&#39;t click" style="strokeWidth=1;shadow=0;dashed=0;align=center;html=1;shape=mxgraph.mockup.anchor;fontSize=16;fontColor=#ffffff;fontStyle=1;whiteSpace=wrap;" parent="Z-sgu7zI139RoXBp0RE4-14" vertex="1">
          <mxGeometry y="8" width="150" height="20" as="geometry" />
        </mxCell>
        <mxCell id="Z-sgu7zI139RoXBp0RE4-16" value="" style="strokeWidth=1;shadow=0;dashed=0;align=center;html=1;shape=mxgraph.mockup.anchor;fontSize=12;fontColor=#ffffff;fontStyle=1;whiteSpace=wrap;" parent="Z-sgu7zI139RoXBp0RE4-14" vertex="1">
          <mxGeometry y="30" width="150" height="10" as="geometry" />
        </mxCell>
        <mxCell id="Z-sgu7zI139RoXBp0RE4-17" value="Forza&amp;nbsp; Juveeeeeeeeeeeeeeee" style="rounded=0;whiteSpace=wrap;html=1;" parent="Z-sgu7zI139RoXBp0RE4-1" vertex="1">
          <mxGeometry x="270" y="420" width="170" height="60" as="geometry" />
        </mxCell>
        <mxCell id="Z-sgu7zI139RoXBp0RE4-6" value="PREMENDOLO APPARE LA SCRITTA SOTTO" style="shape=note;whiteSpace=wrap;html=1;backgroundOutline=1;darkOpacity=0.05;" parent="1" vertex="1">
          <mxGeometry x="850" y="-70" width="90" height="130" as="geometry" />
        </mxCell>
        <mxCell id="Z-sgu7zI139RoXBp0RE4-7" value="qUESTA SCRITTA FA APPARIRE UNO SFONDO CON RONALDO" style="shape=note;whiteSpace=wrap;html=1;backgroundOutline=1;darkOpacity=0.05;" parent="1" vertex="1">
          <mxGeometry x="840" y="80" width="100" height="160" as="geometry" />
        </mxCell>
        <mxCell id="Z-sgu7zI139RoXBp0RE4-8" value="" style="endArrow=classic;startArrow=classic;html=1;entryX=0.006;entryY=0.604;entryDx=0;entryDy=0;entryPerimeter=0;" parent="1" source="Z-sgu7zI139RoXBp0RE4-4" target="Z-sgu7zI139RoXBp0RE4-6" edge="1">
          <mxGeometry width="50" height="50" relative="1" as="geometry">
            <mxPoint x="450" y="250" as="sourcePoint" />
            <mxPoint x="500" y="200" as="targetPoint" />
          </mxGeometry>
        </mxCell>
        <mxCell id="Z-sgu7zI139RoXBp0RE4-11" value="" style="endArrow=classic;html=1;exitX=0.623;exitY=0.481;exitDx=0;exitDy=0;exitPerimeter=0;" parent="1" source="Z-sgu7zI139RoXBp0RE4-1" target="Z-sgu7zI139RoXBp0RE4-7" edge="1">
          <mxGeometry width="50" height="50" relative="1" as="geometry">
            <mxPoint x="450" y="210" as="sourcePoint" />
            <mxPoint x="500" y="160" as="targetPoint" />
          </mxGeometry>
        </mxCell>
        <mxCell id="Z-sgu7zI139RoXBp0RE4-12" value="QUESTA FRASE FA APPARIRE UNO SFONDO CUN UNA GRSSA SCRITTA(ASPETTA)" style="shape=note;whiteSpace=wrap;html=1;backgroundOutline=1;darkOpacity=0.05;" parent="1" vertex="1">
          <mxGeometry x="-20" y="-80" width="120" height="140" as="geometry" />
        </mxCell>
        <mxCell id="Z-sgu7zI139RoXBp0RE4-13" value="" style="endArrow=classic;html=1;entryX=1.013;entryY=0.525;entryDx=0;entryDy=0;entryPerimeter=0;exitX=0.435;exitY=0.538;exitDx=0;exitDy=0;exitPerimeter=0;" parent="1" source="Z-sgu7zI139RoXBp0RE4-1" target="Z-sgu7zI139RoXBp0RE4-12" edge="1">
          <mxGeometry width="50" height="50" relative="1" as="geometry">
            <mxPoint x="450" y="210" as="sourcePoint" />
            <mxPoint x="500" y="160" as="targetPoint" />
          </mxGeometry>
        </mxCell>
        <mxCell id="Z-sgu7zI139RoXBp0RE4-18" value="CLICCANDO SUL BOTTONE FA APPARIRE LA SCRITTA SOTTO" style="shape=note;whiteSpace=wrap;html=1;backgroundOutline=1;darkOpacity=0.05;" parent="1" vertex="1">
          <mxGeometry x="30" y="230" width="80" height="100" as="geometry" />
        </mxCell>
        <mxCell id="Z-sgu7zI139RoXBp0RE4-19" value="" style="endArrow=classic;html=1;entryX=0;entryY=0;entryDx=80;entryDy=65;entryPerimeter=0;exitX=0.007;exitY=0.54;exitDx=0;exitDy=0;exitPerimeter=0;" parent="1" source="Z-sgu7zI139RoXBp0RE4-14" target="Z-sgu7zI139RoXBp0RE4-18" edge="1">
          <mxGeometry width="50" height="50" relative="1" as="geometry">
            <mxPoint x="480" y="120" as="sourcePoint" />
            <mxPoint x="530" y="70" as="targetPoint" />
          </mxGeometry>
        </mxCell>
      </root>
    </mxGraphModel>
  </diagram>
</mxfile>
